<svg xmlns="http://www.w3.org/2000/svg" viewBox="0 0 320 240" role="img" aria-labelledby="title desc">
  <title id="title">Wall angels</title>
  <desc id="desc">A person standing with the back and ribs against a wall while the arms form a goalpost position.</desc>
  <style>
    .line { fill: none; stroke: #52525b; stroke-linecap: round; stroke-linejoin: round; stroke-width: 10; }
    .soft { fill: #e4e4e7; stroke: #52525b; stroke-linecap: round; stroke-linejoin: round; stroke-width: 7; }
    .ground { fill: none; stroke: #a1a1aa; stroke-linecap: round; stroke-linejoin: round; stroke-width: 4; }
    .contact { fill: none; stroke: #a1a1aa; stroke-linecap: round; stroke-width: 4; }
    @media (prefers-color-scheme: dark) { .line { stroke: #e4e4e7; } .soft { fill: #3f3f46; stroke: #e4e4e7; } .ground { stroke: #71717a; } .contact { stroke: #a1a1aa; } }
  </style>
  <path class="ground" d="M57 203H282 M89 34V203"/>
  <circle class="soft" cx="143" cy="58" r="17"/>
  <path class="soft" d="M112 79 Q142 71 163 79 L169 147 L108 147Z"/>
  <path class="contact" d="M89 88H109 M89 132H108"/>
  <path class="line" d="M116 89 L91 111 L91 70 M165 89 L191 111 L191 70"/>
  <path class="line" d="M91 70 L91 52 M191 70 L191 52"/>
  <path class="line" d="M127 145 L119 198 M156 145 L164 198"/>
  <path class="line" d="M119 198 L106 200 M164 198 L177 200"/>
</svg>
